<svg xmlns="http://www.w3.org/2000/svg" viewBox="0 0 44 44"><defs><style>.cls-1{fill:#111216;}</style></defs><title>send-arrow-up@1x</title><g id="Layer_2" data-name="Layer 2"><g id="Arrows"><g id="Curved_Arrow_Up_2x.png" data-name="Curved Arrow Up@2x.png"><path class="cls-1" d="M43.71,12.29l-11-12a1,1,0,0,0-1.41,0l-11,12A1,1,0,0,0,21,14h4.9a41.12,41.12,0,0,1-3.1,13.2C18.66,37,11.32,42,1,42a1,1,0,0,0,0,2c32.84,0,36.58-24.71,37-30h5a1,1,0,0,0,.71-1.71ZM37,12a1,1,0,0,0-1,1v1c-.28,4.36-2.58,20.2-20.83,26,11-7.42,12.6-21.95,12.83-26V13a1,1,0,0,0-1-1H23.27L32,2.48,40.73,12Z"/></g></g></g></svg>